<?xml version="1.0" standalone="no"?>
<!DOCTYPE svg PUBLIC "-//W3C//DTD SVG 20010904//EN"
 "http://www.w3.org/TR/2001/REC-SVG-20010904/DTD/svg10.dtd">
<svg version="1.0" xmlns="http://www.w3.org/2000/svg"
 width="520.000000pt" height="200.000000pt" viewBox="0 0 520.000000 200.000000"
 preserveAspectRatio="xMidYMid meet">

<g transform="translate(0.000000,200.000000) scale(0.100000,-0.100000)"
fill="#000000" stroke="none">
<path d="M0 1000 l0 -1000 2600 0 2600 0 0 1000 0 1000 -2600 0 -2600 0 0
-1000z m3905 826 c87 -40 154 -134 192 -267 14 -51 18 -102 18 -249 0 -172 -2
-193 -29 -295 -52 -203 -138 -405 -234 -549 -62 -94 -220 -257 -295 -304 -99
-63 -174 -86 -259 -80 -46 3 -88 13 -113 26 -94 48 -174 176 -197 314 -13 83
-21 98 -53 98 -16 0 -25 8 -29 25 -15 61 81 631 118 704 41 79 145 116 206 73
35 -24 405 -410 433 -451 9 -14 19 -22 22 -20 4 4 94 448 95 467 0 5 119 2
134 -4 53 -20 -24 -366 -130 -579 -52 -105 -116 -205 -132 -205 -4 0 -106 103
-227 229 -121 125 -222 227 -224 225 -4 -4 -66 -306 -75 -369 -14 -95 -14 -95
-60 -95 -68 0 -74 -9 -51 -77 24 -70 66 -127 124 -168 40 -28 49 -30 130 -30
77 0 93 3 153 33 82 40 197 145 278 254 245 329 332 809 196 1076 -50 98 -123
142 -233 142 -78 0 -153 -30 -236 -94 -27 -21 -51 -35 -53 -33 -7 7 105 106
162 144 129 86 266 108 369 59z m-2560 -106 c62 -38 60 -11 63 -748 3 -709 1
-734 -43 -777 -54 -55 -164 -54 -224 1 l-36 32 -3 706 c-3 781 -5 746 61 786
44 27 138 27 182 0z m-382 -124 c18 -7 43 -26 57 -41 l25 -27 3 -559 c2 -531
1 -562 -16 -603 -44 -98 -207 -104 -269 -9 -17 25 -18 66 -21 548 -2 286 0
544 3 573 10 85 61 129 153 131 18 1 47 -5 65 -13z m3214 -203 c7 -75 20 -90
64 -74 37 13 829 16 829 3 0 -15 -153 -173 -184 -189 -26 -14 -75 -16 -338
-17 -304 -1 -308 -1 -330 -23 -18 -19 -20 -27 -12 -50 l9 -28 310 -6 c293 -5
313 -6 360 -28 116 -52 149 -127 105 -245 -33 -86 -71 -130 -142 -165 -95 -46
-185 -54 -553 -53 l-319 2 -46 -51 c-25 -28 -69 -77 -98 -108 l-53 -56 77 115
c128 194 227 421 269 619 20 96 34 283 29 381 -3 67 -2 80 6 60 6 -14 14 -53
17 -87z m-3552 33 c65 -27 65 -30 65 -476 0 -443 0 -444 -63 -476 -43 -23
-136 -22 -176 2 -61 36 -62 42 -59 483 3 388 4 400 24 428 11 15 32 34 45 40
32 17 122 16 164 -1z m-285 -476 l0 -150 -75 0 c-107 0 -115 10 -115 154 0
141 4 146 112 146 l78 0 0 -150z m2599 103 c0 -27 -8 -93 -17 -148 l-18 -100
-722 -3 -722 -2 0 150 0 150 740 0 740 0 -1 -47z"/>
<path d="M4104 798 c-13 -26 -24 -52 -24 -58 0 -7 102 -10 306 -10 301 0 336
3 356 34 12 17 9 53 -4 64 -8 6 -130 11 -311 14 l-299 4 -24 -48z"/>
</g>
</svg>
