<?xml version="1.0" standalone="no"?>
<!DOCTYPE svg PUBLIC "-//W3C//DTD SVG 20010904//EN"
 "http://www.w3.org/TR/2001/REC-SVG-20010904/DTD/svg10.dtd">
<svg version="1.0" xmlns="http://www.w3.org/2000/svg"
 width="1999.000000pt" height="684.000000pt" viewBox="0 0 1999.000000 684.000000"
 preserveAspectRatio="xMidYMid meet">
<metadata>
Created by potrace 1.15, written by Peter Selinger 2001-2017
</metadata>
<g transform="translate(0.000000,684.000000) scale(0.100000,-0.100000)"
fill="#ffffff" stroke="none">
<path d="M12924 5700 c-250 -26 -583 -220 -863 -503 -67 -68 -78 -84 -58 -80
14 3 51 27 84 55 121 103 286 199 413 239 50 17 101 22 221 26 140 5 164 3
225 -16 125 -38 219 -106 304 -218 104 -137 187 -339 232 -565 20 -99 22 -143
22 -358 0 -272 -9 -360 -70 -634 -140 -629 -393 -1137 -795 -1592 -220 -250
-503 -443 -739 -506 -125 -33 -288 -31 -387 4 -200 71 -356 241 -458 497 -47
119 -54 165 -29 179 11 5 69 13 131 17 144 9 142 6 172 190 43 265 201 1055
210 1055 3 -1 22 -22 42 -48 68 -88 352 -386 740 -776 352 -354 389 -389 404
-376 23 19 116 159 198 297 120 202 230 438 301 642 97 278 187 689 202 923 6
100 6 105 -17 131 -31 37 -78 46 -220 47 -97 0 -120 -3 -138 -17 -23 -19 -29
-45 -167 -778 -61 -322 -88 -425 -113 -425 -5 0 -20 17 -33 38 -61 90 -970
1059 -1084 1154 -69 57 -117 71 -226 66 -80 -4 -102 -9 -157 -37 -129 -66
-201 -171 -250 -366 -53 -212 -142 -688 -195 -1045 -54 -361 -69 -570 -45
-639 10 -30 13 -31 65 -31 46 0 59 -4 79 -26 25 -27 32 -55 61 -229 83 -508
395 -854 793 -881 251 -18 580 114 849 340 179 151 451 454 591 661 246 361
478 907 605 1428 81 329 81 325 81 762 0 387 -1 391 -28 518 -91 426 -250 682
-500 809 -118 59 -289 85 -453 68z"/>
<path d="M6388 5410 c-117 -20 -218 -95 -267 -199 l-26 -56 -3 -1680 c-3
-1691 0 -1893 32 -1970 20 -46 94 -118 153 -148 68 -35 159 -51 251 -44 162
12 242 59 314 188 l48 84 0 1778 0 1778 -31 62 c-43 86 -88 138 -145 169 -80
43 -206 58 -326 38z"/>
<path d="M5452 5060 c-59 -12 -158 -67 -189 -104 -14 -17 -38 -56 -52 -86 -25
-54 -26 -59 -32 -375 -4 -176 -7 -822 -8 -1435 l-1 -1115 29 -62 c35 -74 98
-144 160 -181 43 -25 55 -27 194 -30 l149 -4 63 31 c74 37 127 92 164 170 l26
56 3 1448 3 1448 -31 54 c-40 70 -126 148 -187 170 -56 19 -228 28 -291 15z"/>
<path d="M13984 4837 c3 -10 9 -141 12 -290 13 -561 -32 -896 -183 -1372 -82
-258 -236 -604 -383 -861 -68 -118 -280 -442 -353 -539 -25 -33 -44 -62 -42
-64 13 -13 173 158 335 358 66 82 128 152 137 156 29 13 433 23 908 25 580 1
908 13 1055 39 333 58 522 173 632 386 90 174 129 337 108 442 -44 209 -231
346 -526 383 -43 5 -394 15 -779 21 -494 7 -707 14 -724 22 -13 7 -33 31 -43
54 -31 71 1 144 75 172 77 29 178 33 887 35 l725 1 64 33 c72 38 198 155 355
330 121 137 142 167 124 179 -18 11 -1964 5 -2058 -7 -41 -5 -93 -15 -116 -21
-53 -16 -89 -6 -102 28 -6 16 -18 82 -27 148 -16 123 -59 318 -77 345 -8 12
-8 11 -4 -3z m158 -1733 c100 -12 282 -18 738 -23 441 -4 611 -9 626 -18 49
-28 57 -123 15 -182 -12 -16 -42 -40 -69 -53 l-47 -23 -775 -3 c-426 -2 -786
0 -798 3 -31 8 -26 27 34 155 46 97 74 136 109 150 27 12 16 12 167 -6z"/>
<path d="M4507 4629 c-91 -21 -172 -90 -222 -189 l-27 -53 4 -1026 c3 -1018 3
-1026 24 -1072 60 -130 184 -199 359 -199 182 0 308 69 369 199 21 46 21 50
21 1061 0 811 -3 1025 -13 1067 -27 104 -112 180 -232 207 -74 17 -221 20
-283 5z"/>
<path d="M3791 3753 c-72 -4 -112 -26 -137 -74 -24 -48 -39 -304 -26 -449 12
-126 23 -160 71 -208 39 -38 62 -42 256 -42 l162 0 6 98 c4 53 7 229 7 390 l0
292 -137 -2 c-76 -1 -167 -3 -202 -5z"/>
<path d="M7313 3753 l-283 -3 0 -379 0 -378 1861 -8 c1058 -4 1864 -4 1868 1
5 5 27 126 50 269 48 304 60 392 61 458 l0 47 -1637 -2 c-901 -2 -1765 -4
-1920 -5z"/>
</g>
</svg>
