<?xml version="1.0" standalone="no"?>
<!DOCTYPE svg PUBLIC "-//W3C//DTD SVG 20010904//EN"
 "http://www.w3.org/TR/2001/REC-SVG-20010904/DTD/svg10.dtd">
<svg version="1.0" xmlns="http://www.w3.org/2000/svg"
 width="1599.000000pt" height="547.000000pt" viewBox="0 0 1599.000000 547.000000"
 preserveAspectRatio="xMidYMid meet">
<metadata>
Created by potrace 1.15, written by Peter Selinger 2001-2017
</metadata>
<g transform="translate(0.000000,547.000000) scale(0.100000,-0.100000)"
fill="#fffff" stroke="none">
<path d="M10351 5409 c-167 -33 -400 -163 -560 -314 -36 -35 -88 -84 -116
-110 -27 -26 -42 -45 -32 -41 10 3 23 6 28 6 5 0 28 17 52 39 85 77 210 151
325 193 72 26 252 36 334 19 230 -48 396 -286 465 -664 22 -124 22 -393 -1
-542 -85 -550 -267 -983 -584 -1387 -252 -321 -549 -519 -802 -535 -159 -10
-278 36 -396 152 -77 77 -142 191 -186 326 -22 70 -22 71 -3 85 13 9 47 14
106 14 66 0 91 4 103 16 9 8 16 17 16 19 0 30 56 334 112 614 l72 354 26 -34
c90 -118 899 -948 918 -941 26 9 196 281 272 437 43 88 99 217 124 287 85 238
161 575 173 768 5 93 5 95 -21 119 -24 23 -36 25 -144 29 -127 5 -146 -1 -157
-51 -12 -58 -155 -807 -161 -845 -7 -46 -41 -97 -51 -74 -17 42 -307 357 -830
898 -77 81 -130 108 -208 108 -77 0 -131 -16 -191 -57 -60 -40 -106 -100 -133
-171 -62 -165 -216 -1046 -228 -1301 -6 -147 3 -180 47 -171 70 14 103 -26
114 -139 9 -97 41 -222 83 -322 100 -239 271 -394 483 -439 193 -41 439 31
675 197 179 127 454 428 596 653 222 354 408 843 491 1292 19 105 22 153 22
399 0 242 -3 296 -22 395 -89 483 -323 733 -681 729 -47 -1 -106 -5 -130 -10z"/>
<path d="M5125 5173 c-92 -28 -159 -95 -188 -188 -9 -31 -12 -363 -12 -1435 0
-1568 -5 -1462 74 -1552 50 -57 121 -88 215 -95 92 -7 174 11 233 50 37 25 56
48 83 101 l35 69 0 1426 0 1426 -28 57 c-34 70 -94 124 -161 143 -63 19 -186
18 -251 -2z"/>
<path d="M4395 4896 c-97 -31 -151 -82 -182 -171 -17 -47 -18 -128 -18 -1185
l0 -1135 26 -55 c31 -67 79 -117 139 -144 36 -16 67 -20 151 -20 98 -1 109 1
165 29 65 33 114 93 136 168 10 33 13 292 13 1182 l0 1140 -24 48 c-31 63
-101 123 -164 142 -61 18 -187 19 -242 1z"/>
<path d="M11248 4665 c4 -49 7 -205 6 -345 -1 -295 -18 -437 -85 -708 -111
-454 -325 -894 -647 -1331 -48 -65 -51 -71 -23 -52 44 32 168 170 257 286 42
55 88 108 102 117 24 15 93 17 702 21 542 4 699 8 795 20 388 52 544 164 644
463 49 145 39 244 -33 343 -46 63 -122 113 -220 146 -111 37 -298 48 -858 49
l-476 1 -25 23 c-33 31 -41 76 -21 118 36 76 106 85 634 82 756 -5 697 -7 763
24 40 19 84 53 140 110 139 141 252 269 255 289 3 19 -8 20 -835 17 -769 -3
-842 -5 -882 -21 -87 -34 -116 -18 -125 70 -11 112 -27 199 -51 283 l-24 85 7
-90z m137 -1330 c90 -11 232 -15 582 -15 322 0 470 -3 487 -11 54 -25 59 -114
8 -162 -61 -58 -45 -57 -727 -57 -536 0 -626 2 -631 14 -3 8 17 62 44 119 41
85 56 107 79 115 37 14 22 14 158 -3z"/>
<path d="M3657 4556 c-77 -21 -128 -63 -162 -131 l-30 -60 0 -815 c0 -665 3
-822 14 -854 17 -49 73 -112 122 -136 95 -49 265 -45 363 8 53 29 98 88 116
152 6 21 10 339 10 826 0 878 1 859 -66 933 -50 57 -120 83 -229 87 -56 3
-108 -1 -138 -10z"/>
<path d="M3035 3850 c-11 -4 -31 -20 -44 -34 -22 -24 -25 -39 -33 -156 -5 -76
-5 -173 0 -230 8 -84 13 -105 36 -135 43 -56 56 -60 216 -60 l145 0 3 313 2
312 -152 -1 c-84 0 -162 -4 -173 -9z"/>
<path d="M5680 3853 c-1 -5 -1 -143 -1 -308 l0 -300 1494 -3 1494 -2 27 162
c41 245 56 347 56 406 l0 52 -1535 0 c-844 0 -1535 -3 -1535 -7z"/>
<path d="M110 755 l0 -685 135 0 135 0 1 433 c0 237 4 423 8 412 4 -11 55
-206 112 -432 l104 -413 193 0 192 0 0 685 0 685 -140 0 -140 0 0 -437 -1
-438 -100 400 c-55 220 -104 417 -110 438 l-10 37 -189 0 -190 0 0 -685z"/>
<path d="M1270 755 l0 -685 365 0 365 0 0 125 0 125 -230 0 -230 0 0 155 0
155 190 0 190 0 0 125 0 125 -190 0 -190 0 0 155 0 155 230 0 230 0 0 125 0
125 -365 0 -365 0 0 -685z"/>
<path d="M2200 755 l0 -685 140 0 140 0 0 685 0 685 -140 0 -140 0 0 -685z"/>
<path d="M2760 755 l0 -685 330 0 330 0 0 125 0 125 -190 0 -190 0 0 560 0
560 -140 0 -140 0 0 -685z"/>
<path d="M4165 1423 c-48 -25 -83 -63 -101 -109 -13 -34 -15 -75 -12 -235 3
-189 4 -196 31 -251 31 -62 84 -116 149 -149 62 -32 92 -39 197 -49 67 -6 101
-14 120 -28 25 -19 26 -22 29 -151 l3 -132 -128 3 -128 3 -3 103 -3 102 -134
0 -135 0 0 -150 c0 -195 19 -243 112 -291 34 -17 61 -19 293 -19 284 0 303 4
358 70 39 46 47 90 47 265 0 226 -28 316 -122 387 -77 58 -129 76 -257 88
-147 13 -164 35 -159 208 l3 97 128 3 127 3 0 -106 0 -105 140 0 140 0 0 143
c0 158 -8 202 -47 248 -54 64 -79 69 -363 68 -213 0 -260 -2 -285 -16z"/>
<path d="M5100 755 l0 -685 140 0 140 0 2 437 3 436 89 -424 c49 -233 91 -430
94 -437 3 -10 43 -12 170 -10 l166 3 90 432 91 433 3 -435 2 -435 140 0 140 0
0 685 -1 685 -192 0 -192 0 -119 -538 c-66 -295 -123 -543 -127 -551 -4 -9
-10 1 -16 30 -5 24 -61 272 -124 551 l-114 508 -192 0 -192 0 -1 -685z"/>
<path d="M6650 755 l0 -685 135 0 135 0 0 685 0 685 -135 0 -135 0 0 -685z"/>
<path d="M7120 1315 l0 -125 135 0 135 0 0 -560 0 -560 135 0 135 0 0 560 0
560 135 0 135 0 0 125 0 125 -405 0 -405 0 0 -125z"/>
<path d="M8090 755 l0 -685 135 0 135 0 0 280 0 280 130 0 130 0 0 -280 0
-280 135 0 135 0 0 685 0 685 -135 0 -135 0 0 -280 0 -280 -130 0 -130 0 0
280 0 280 -135 0 -135 0 0 -685z"/>
<path d="M9660 755 l0 -685 135 0 135 0 0 280 0 280 190 0 190 0 0 125 0 125
-190 0 -190 0 0 155 0 155 228 0 227 0 0 125 0 125 -362 0 -363 0 0 -685z"/>
<path d="M10560 755 l0 -685 138 0 137 0 0 685 0 685 -137 0 -138 0 0 -685z"/>
<path d="M11030 1315 l0 -125 135 0 135 0 0 -560 0 -560 135 0 135 0 0 560 0
560 135 0 135 0 0 125 0 125 -405 0 -405 0 0 -125z"/>
<path d="M12000 755 l0 -685 135 0 135 0 1 433 0 432 24 -85 c13 -47 62 -241
110 -432 l88 -348 188 0 189 0 0 685 0 685 -135 0 -135 0 -1 -437 -1 -438
-110 438 -110 437 -189 0 -189 0 0 -685z"/>
<path d="M13160 755 l0 -685 365 0 365 0 0 125 0 125 -230 0 -230 0 0 155 0
155 190 0 190 0 0 125 0 125 -190 0 -190 0 0 155 0 155 230 0 230 0 0 125 0
125 -365 0 -365 0 0 -685z"/>
<path d="M14185 1426 c-43 -19 -103 -89 -110 -129 -4 -20 -5 -122 -3 -229 3
-192 3 -193 33 -247 65 -117 195 -190 340 -191 68 0 121 -16 140 -43 11 -16
15 -50 15 -144 l0 -123 -130 0 -130 0 0 105 0 105 -135 0 -135 0 0 -154 c0
-85 5 -167 11 -183 14 -38 67 -92 106 -109 25 -11 92 -14 285 -14 284 0 311 6
361 72 38 49 43 91 37 308 -6 227 -11 242 -104 328 -71 64 -140 91 -266 102
-150 13 -160 25 -160 195 l0 115 130 0 130 0 0 -105 0 -106 136 3 136 3 -1
160 c-2 184 -10 210 -80 260 l-43 30 -266 2 c-205 2 -274 0 -297 -11z"/>
<path d="M15215 1426 c-38 -17 -90 -72 -104 -109 -17 -45 -14 -383 4 -444 28
-94 107 -175 213 -216 25 -10 89 -22 143 -27 102 -8 132 -19 149 -50 5 -10 10
-73 10 -139 l0 -121 -130 0 -130 0 0 105 0 105 -135 0 -135 0 0 -154 c0 -85 5
-167 11 -183 14 -38 67 -92 106 -109 25 -11 92 -14 286 -14 242 0 255 1 297
23 26 13 57 40 75 65 l30 44 0 206 c-1 223 -4 241 -61 324 -31 44 -111 101
-174 124 -25 8 -88 19 -141 24 -149 12 -159 25 -159 195 l0 115 130 0 130 0 0
-105 0 -105 141 0 141 0 -4 165 c-4 163 -4 164 -33 206 -17 23 -50 53 -74 66
-43 22 -51 23 -300 23 -192 -1 -264 -4 -286 -14z"/>
</g>
</svg>
